<?xml version="1.0" encoding="iso-8859-1"?>
<!-- Generator: Adobe Illustrator 19.0.0, SVG Export Plug-In . SVG Version: 6.00 Build 0)  -->
<svg version="1.1" id="Layer_1" xmlns="http://www.w3.org/2000/svg" xmlns:xlink="http://www.w3.org/1999/xlink" x="0px" y="0px"
	 viewBox="0 0 420.8 420.8" style="enable-background:new 0 0 420.8 420.8;" xml:space="preserve">
<path style="opacity:0.2;fill:#B2B2B2;enable-background:new    ;" d="M395.953,314.4c-10.4-6.4-23.2-3.2-29.6,7.2
	c-21.6,35.2-59.2,56-100,56h-15.2c-3.2,0-7.2,0-10.4-0.8c-1.6,0-2.4,0-4-0.8c-2.4,0-4-0.8-6.4-0.8c-1.6,0-3.2-0.8-4.8-0.8
	c-1.6,0-3.2-0.8-5.6-1.6c-1.6-0.8-3.2-0.8-5.6-1.6c-0.8,0-2.4-0.8-4-0.8c-1.6-0.8-4-1.6-5.6-2.4c-0.8-0.8-2.4-0.8-3.2-1.6
	c-2.4-0.8-4-2.4-6.4-3.2c-0.8-0.8-1.6-0.8-3.2-1.6c-2.4-1.6-4-2.4-6.4-4c-0.8-0.8-1.6-0.8-2.4-1.6c-2.4-1.6-4-3.2-6.4-4.8
	c-0.8,0-0.8-0.8-1.6-0.8c-2.4-1.6-4-4-6.4-5.6l-0.8-0.8c-2.4-2.4-4-4-6.4-6.4c0,0,0,0-0.8-0.8c-2.4-2.4-4-4.8-5.6-7.2l0,0
	c-1.6-2.4-4-5.6-5.6-8l0,0c-6.4-11.2-12-24-14.4-37.6c0-1.6-0.8-3.2-0.8-4.8h5.6h44c12,0,21.6-9.6,21.6-21.6s-9.6-21.6-21.6-21.6
	h-0.8h-50.4v-50.4h51.2c12,0,21.6-9.6,21.6-21.6s-9.6-21.6-21.6-21.6h-49.6c8.8-56,56.8-98.4,115.2-98.4h16.8
	c29.6,0,57.6,11.2,79.2,31.2l0,0c8,7.2,14.4,15.2,20.8,24.8c6.4,10.4,19.2,13.6,29.6,7.2c10.4-6.4,13.6-19.2,7.2-29.6
	c-29.6-48.8-80.8-77.6-136.8-77.6h-15.2c-82.4,0-150.4,62.4-159.2,141.6h-32c-12,0-21.6,9.6-21.6,21.6s9.6,21.6,21.6,21.6h30.4v50.4
	h-30.4c-12,0-21.6,9.6-21.6,21.6s9.6,21.6,21.6,21.6h32c1.6,13.6,4.8,27.2,9.6,39.2l0,0l0,0c1.6,3.2,2.4,6.4,4,9.6
	c0,0.8,0.8,1.6,0.8,2.4c1.6,3.2,3.2,5.6,4.8,8.8c0.8,0.8,0.8,1.6,1.6,2.4c1.6,3.2,3.2,5.6,5.6,8.8l0.8,0.8
	c6.4,8.8,12.8,16.8,20.8,24c0.8,0.8,1.6,1.6,2.4,2.4c1.6,1.6,4,4,6.4,5.6c1.6,0.8,2.4,2.4,4,3.2c1.6,1.6,4,3.2,6.4,4.8
	c1.6,0.8,3.2,2.4,4.8,3.2c1.6,1.6,4,2.4,5.6,4c2.4,1.6,4,2.4,6.4,4c2.4,0.8,4,2.4,6.4,3.2c3.2,1.6,7.2,3.2,10.4,4.8
	c1.6,0.8,3.2,0.8,4.8,1.6c2.4,0.8,5.6,1.6,8,2.4c1.6,0.8,3.2,0.8,5.6,1.6c2.4,0.8,5.6,1.6,8,1.6c1.6,0,3.2,0.8,4.8,0.8
	c3.2,0.8,6.4,0.8,9.6,1.6c1.6,0,3.2,0,4.8,0.8c4.8,0.8,9.6,0.8,14.4,0.8h13.6c56,0,107.2-28.8,136.8-76.8
	C409.553,333.6,406.353,320.8,395.953,314.4z"/>
<path style="fill:#0A8AE2;" d="M371.953,314.4c-10.4-6.4-23.2-3.2-29.6,7.2c-21.6,35.2-59.2,56-100,56h-15.2
	c-58.4,0-106.4-43.2-115.2-98.4h49.6c12,0,21.6-9.6,21.6-21.6s-9.6-21.6-21.6-21.6h-51.2v-50.4h51.2c12,0,21.6-9.6,21.6-21.6
	s-9.6-21.6-21.6-21.6h-49.6c8.8-56,56.8-98.4,115.2-98.4h15.2c40.8,0,78.4,20.8,100,56c6.4,10.4,19.2,13.6,29.6,7.2
	c10.4-6.4,13.6-19.2,7.2-29.6c-29.6-48.8-80.8-77.6-136.8-77.6h-15.2c-82.4,0-150.4,62.4-159.2,141.6h-32c-12,0-21.6,9.6-21.6,21.6
	s9.6,21.6,21.6,21.6h30.4v50.4h-30.4c-12,0-21.6,9.6-21.6,21.6s9.6,21.6,21.6,21.6h32c8.8,80,76.8,141.6,159.2,141.6h15.2
	c56,0,107.2-28.8,136.8-76.8C385.553,333.6,382.353,320.8,371.953,314.4z"/>
<g>
	<path style="fill:#0078DB;" d="M160.753,278.4c12,0,21.6-9.6,21.6-21.6s-9.6-21.6-21.6-21.6h-0.8l-43.2,43.2H160.753z"/>
	<path style="fill:#0078DB;" d="M371.953,314.4c-10.4-6.4-23.2-3.2-29.6,7.2c-21.6,35.2-59.2,56-100,56h-15.2
		c-56.8,0-104-40.8-114.4-94.4l-34.4,34.4c23.2,60,81.6,102.4,149.6,102.4h14.4c56,0,107.2-28.8,136.8-76.8
		C385.553,333.6,382.353,320.8,371.953,314.4z"/>
	<path style="fill:#0078DB;" d="M342.353,99.2c6.4,10.4,19.2,13.6,29.6,7.2c10.4-6.4,13.6-19.2,7.2-29.6
		c-7.2-12-16.8-23.2-26.4-32.8l-31.2,30.4C329.553,81.6,336.753,89.6,342.353,99.2z"/>
</g>
<g>
</g>
<g>
</g>
<g>
</g>
<g>
</g>
<g>
</g>
<g>
</g>
<g>
</g>
<g>
</g>
<g>
</g>
<g>
</g>
<g>
</g>
<g>
</g>
<g>
</g>
<g>
</g>
<g>
</g>
</svg>
